# xmcd
#
# Track frame offsets:
# 150
# 11717
# 29810
# 43145
# 61548
# 75385
# 92710
# 108274
# 122824
# 138903
# 150831
# 166739
# 181339
# 194409
# 210691
# 227256
# 246804
# 263500
# 276553
# 290714
#
# Disc length: 4037 seconds
#
#
# Revision: 0
# Processed by: cddbd v1.5.2PL0 Copyright (c) Steve Scherf et al.
# Submitted via: FreeRIP 2.945 
#
DISCID=0c0fc314
DTITLE=Gauchão bom de dança 2006
DYEAR=2006
DGENRE=
TTITLE0=Candieiro - Me chama que eu vou
TTITLE1=Alma Serrana - Essa noite é nossa
TTITLE2=Garotos de ouro - Lambendo espuleta
TTITLE3=Ivonir e novos garotos - Era, eta, eta
TTITLE4=Os Serranos - Credo em cruz Ave-Maria
TTITLE5=Herança - Coração
TTITLE6=Grupo Minuano - Segura essa danada
TTITLE7=Xirú Missioneiro - Fazendu barulho
TTITLE8=Reponte - Quando a vanera pegá
TTITLE9=Alma Serrana - O pancadão
TTITLE10=Chiquito e Bordoneio - Remelexo
TTITLE11=Os Mateadores - Brega demais
TTITLE12=Herança - Arrepiou
TTITLE13=Grupo Rodeio - De tronco e vanera
TTITLE14=Grupo Minuano - Requebra e gira
TTITLE15=Os Mateadores - Alô meu amor
TTITLE16=Candieiro - Pra lá de bagdá
TTITLE17=Os Mirins - O pegadão
TTITLE18=Chiquito e bordoneio - Morena do baile
TTITLE19=Os Serranos - Ginete e pico
EXTD=
EXTT0=
EXTT1=
EXTT2=
EXTT3=
EXTT4=
EXTT5=
EXTT6=
EXTT7=
EXTT8=
EXTT9=
EXTT10=
EXTT11=
EXTT12=
EXTT13=
EXTT14=
EXTT15=
EXTT16=
EXTT17=
EXTT18=
EXTT19=
PLAYORDER=
